<svg width="774" height="220" viewBox="0 0 774 220" fill="none" xmlns="http://www.w3.org/2000/svg">
<mask id="path-1-outside-1_4081_281" maskUnits="userSpaceOnUse" x="0" y="33" width="774" height="154" fill="black">
<rect fill="white" y="33" width="774" height="154"/>
<path d="M1 184.32V35.6796H107.634V63.6022H30.8993V97.1934H96.7614V124.066H30.8993V156.608H107.634V184.32H1Z"/>
<path d="M118.317 184.32V73.6796H145.707L147.171 86.4862C150.237 82.7072 153.722 79.768 157.625 77.6685C161.667 75.4291 165.71 73.8895 169.752 73.0497C173.934 72.2099 177.697 71.7901 181.043 71.7901C191.636 71.7901 199.86 74.0994 205.715 78.7182C211.709 83.337 215.96 89.5654 218.469 97.4033C221.118 105.101 222.442 113.709 222.442 123.227V184.32H193.17V127.006C193.17 123.646 192.891 120.287 192.333 116.928C191.776 113.569 190.73 110.49 189.197 107.691C187.803 104.891 185.782 102.652 183.134 100.972C180.485 99.2928 177 98.453 172.679 98.453C167.104 98.453 162.434 99.8527 158.67 102.652C154.907 105.451 152.119 109.23 150.307 113.989C148.495 118.748 147.589 123.996 147.589 129.735V184.32H118.317Z"/>
<path d="M296.556 186C286.241 186 276.623 184.39 267.702 181.171C258.921 177.952 251.533 172.843 245.539 165.845C239.685 158.847 235.991 149.82 234.458 138.762H264.984C266.239 143.521 268.539 147.37 271.884 150.309C275.229 153.109 279.202 155.138 283.802 156.398C288.541 157.657 293.49 158.287 298.647 158.287C302.55 158.287 306.383 157.797 310.147 156.818C313.91 155.838 316.977 154.158 319.347 151.779C321.856 149.4 323.11 146.18 323.11 142.122C323.11 139.042 322.413 136.523 321.019 134.564C319.765 132.604 317.883 131.064 315.374 129.945C313.004 128.685 310.077 127.565 306.592 126.586C303.665 125.746 300.599 125.046 297.393 124.486C294.326 123.926 291.259 123.227 288.193 122.387C285.266 121.547 282.408 120.567 279.62 119.448C274.323 118.048 269.236 116.368 264.357 114.409C259.478 112.309 255.157 109.72 251.394 106.641C247.63 103.422 244.633 99.4328 242.403 94.674C240.312 89.9153 239.267 84.1768 239.267 77.4586C239.267 70.1805 240.451 64.0221 242.821 58.9834C245.33 53.9448 248.606 49.8158 252.648 46.5967C256.83 43.2376 261.43 40.6483 266.448 38.8287C271.605 37.0092 276.763 35.7495 281.92 35.0497C287.078 34.3499 291.956 34 296.556 34C306.174 34 314.816 35.6796 322.483 39.0387C330.149 42.3978 336.422 47.4365 341.301 54.1547C346.179 60.8729 348.967 69.3407 349.664 79.558H320.601C320.044 75.3591 318.51 71.93 316.001 69.2707C313.492 66.6114 310.286 64.6519 306.383 63.3923C302.62 62.1326 298.368 61.5028 293.629 61.5028C290.562 61.5028 287.566 61.7827 284.638 62.3425C281.711 62.9024 279.063 63.8122 276.693 65.0718C274.463 66.1915 272.651 67.7311 271.257 69.6906C270.002 71.6501 269.375 74.0295 269.375 76.8287C269.375 79.628 270.142 82.0773 271.675 84.1768C273.208 86.1363 275.439 87.8858 278.366 89.4254C281.432 90.825 284.987 92.1547 289.029 93.4144C293.211 94.814 297.602 95.9337 302.202 96.7735C306.801 97.6133 311.192 98.733 315.374 100.133C320.671 101.532 325.619 103.212 330.219 105.171C334.819 106.991 338.861 109.37 342.346 112.309C345.831 115.109 348.549 118.748 350.5 123.227C352.452 127.565 353.428 132.954 353.428 139.392C353.428 147.93 351.825 155.208 348.619 161.227C345.552 167.105 341.301 171.864 335.864 175.503C330.568 179.142 324.504 181.801 317.674 183.481C310.844 185.16 303.805 186 296.556 186Z"/>
<path d="M411.168 185.79C398.762 185.79 389.562 182.291 383.569 175.293C377.714 168.295 374.787 158.707 374.787 146.53V99.9227H358.269V73.6796H374.787V43.8674H404.059V73.6796H437.513V99.9227H404.059V140.442C404.059 144.081 404.477 147.23 405.314 149.889C406.289 152.549 407.823 154.648 409.913 156.188C412.144 157.587 415.141 158.287 418.904 158.287C422.25 158.287 425.037 157.797 427.268 156.818C429.637 155.698 431.589 154.508 433.122 153.249L442.322 175.923C439.395 178.302 436.119 180.262 432.495 181.801C429.01 183.201 425.456 184.18 421.831 184.74C418.207 185.44 414.653 185.79 411.168 185.79Z"/>
<path d="M480.977 185.79C475.959 185.79 471.08 185.16 466.341 183.901C461.741 182.501 457.629 180.401 454.005 177.602C450.38 174.803 447.523 171.304 445.432 167.105C443.341 162.906 442.296 158.007 442.296 152.409C442.296 144.851 443.829 138.832 446.896 134.354C449.962 129.735 454.074 126.236 459.232 123.856C464.389 121.477 470.313 119.867 477.004 119.028C483.834 118.188 490.873 117.768 498.122 117.768H514.012C514.012 113.709 513.246 110.14 511.712 107.061C510.318 103.842 508.158 101.392 505.231 99.7127C502.303 97.8932 498.54 96.9834 493.94 96.9834C491.013 96.9834 488.155 97.4033 485.367 98.2431C482.719 98.9429 480.489 99.9926 478.677 101.392C476.865 102.792 475.68 104.611 475.122 106.851H445.432C446.268 100.692 448.22 95.4438 451.286 91.105C454.353 86.6261 458.186 82.9871 462.786 80.1878C467.386 77.3886 472.404 75.3591 477.84 74.0994C483.416 72.6998 489.131 72 494.985 72C511.015 72 522.864 76.6188 530.53 85.8564C538.197 94.954 542.03 107.901 542.03 124.696V184.32H515.685L515.267 170.044C511.782 174.943 507.809 178.512 503.349 180.751C499.028 182.991 494.846 184.39 490.804 184.95C486.761 185.51 483.486 185.79 480.977 185.79ZM487.667 162.486C492.546 162.486 497.007 161.506 501.049 159.547C505.091 157.587 508.297 154.928 510.667 151.569C513.036 148.21 514.221 144.431 514.221 140.232V137.503H494.149C491.222 137.503 488.364 137.643 485.577 137.923C482.928 138.203 480.489 138.762 478.259 139.602C476.168 140.302 474.495 141.492 473.24 143.171C471.986 144.851 471.359 147.09 471.359 149.889C471.359 152.689 472.056 155.068 473.45 157.028C474.983 158.847 477.004 160.247 479.513 161.227C482.022 162.066 484.74 162.486 487.667 162.486Z"/>
<path d="M605.876 185.79C594.586 185.79 584.898 183.481 576.813 178.862C568.868 174.243 562.804 167.735 558.623 159.337C554.441 150.799 552.35 140.792 552.35 129.315C552.35 117.698 554.511 107.621 558.832 99.0829C563.153 90.4052 569.356 83.6869 577.44 78.9282C585.664 74.1694 595.561 71.7901 607.131 71.7901C616.052 71.7901 623.997 73.3996 630.966 76.6188C637.936 79.8379 643.512 84.4567 647.693 90.4751C652.014 96.4936 654.524 103.912 655.22 112.729H626.576C625.321 107.831 622.882 104.262 619.258 102.022C615.773 99.7827 611.591 98.663 606.713 98.663C600.44 98.663 595.422 100.203 591.658 103.282C588.034 106.361 585.386 110.28 583.713 115.039C582.18 119.797 581.413 124.556 581.413 129.315C581.413 134.494 582.249 139.392 583.922 144.011C585.595 148.49 588.243 152.199 591.867 155.138C595.631 157.937 600.51 159.337 606.503 159.337C611.521 159.337 615.912 158.217 619.676 155.978C623.439 153.599 625.879 149.959 626.994 145.061H656.266C655.569 154.158 652.851 161.716 648.112 167.735C643.372 173.753 637.309 178.302 629.921 181.381C622.673 184.32 614.658 185.79 605.876 185.79Z"/>
<path d="M665.575 184.32V35.6796H694.847V116.088H709.274L736.246 73.6796H769.073L733.946 126.376L772 184.32H738.128L710.529 142.331H694.847V184.32H665.575Z"/>
</mask>
<path d="M1 184.32V35.6796H107.634V63.6022H30.8993V97.1934H96.7614V124.066H30.8993V156.608H107.634V184.32H1Z" stroke="#00DCC2" stroke-opacity="0.12" stroke-width="2" mask="url(#path-1-outside-1_4081_281)"/>
<path d="M118.317 184.32V73.6796H145.707L147.171 86.4862C150.237 82.7072 153.722 79.768 157.625 77.6685C161.667 75.4291 165.71 73.8895 169.752 73.0497C173.934 72.2099 177.697 71.7901 181.043 71.7901C191.636 71.7901 199.86 74.0994 205.715 78.7182C211.709 83.337 215.96 89.5654 218.469 97.4033C221.118 105.101 222.442 113.709 222.442 123.227V184.32H193.17V127.006C193.17 123.646 192.891 120.287 192.333 116.928C191.776 113.569 190.73 110.49 189.197 107.691C187.803 104.891 185.782 102.652 183.134 100.972C180.485 99.2928 177 98.453 172.679 98.453C167.104 98.453 162.434 99.8527 158.67 102.652C154.907 105.451 152.119 109.23 150.307 113.989C148.495 118.748 147.589 123.996 147.589 129.735V184.32H118.317Z" stroke="#00DCC2" stroke-opacity="0.12" stroke-width="2" mask="url(#path-1-outside-1_4081_281)"/>
<path d="M296.556 186C286.241 186 276.623 184.39 267.702 181.171C258.921 177.952 251.533 172.843 245.539 165.845C239.685 158.847 235.991 149.82 234.458 138.762H264.984C266.239 143.521 268.539 147.37 271.884 150.309C275.229 153.109 279.202 155.138 283.802 156.398C288.541 157.657 293.49 158.287 298.647 158.287C302.55 158.287 306.383 157.797 310.147 156.818C313.91 155.838 316.977 154.158 319.347 151.779C321.856 149.4 323.11 146.18 323.11 142.122C323.11 139.042 322.413 136.523 321.019 134.564C319.765 132.604 317.883 131.064 315.374 129.945C313.004 128.685 310.077 127.565 306.592 126.586C303.665 125.746 300.599 125.046 297.393 124.486C294.326 123.926 291.259 123.227 288.193 122.387C285.266 121.547 282.408 120.567 279.62 119.448C274.323 118.048 269.236 116.368 264.357 114.409C259.478 112.309 255.157 109.72 251.394 106.641C247.63 103.422 244.633 99.4328 242.403 94.674C240.312 89.9153 239.267 84.1768 239.267 77.4586C239.267 70.1805 240.451 64.0221 242.821 58.9834C245.33 53.9448 248.606 49.8158 252.648 46.5967C256.83 43.2376 261.43 40.6483 266.448 38.8287C271.605 37.0092 276.763 35.7495 281.92 35.0497C287.078 34.3499 291.956 34 296.556 34C306.174 34 314.816 35.6796 322.483 39.0387C330.149 42.3978 336.422 47.4365 341.301 54.1547C346.179 60.8729 348.967 69.3407 349.664 79.558H320.601C320.044 75.3591 318.51 71.93 316.001 69.2707C313.492 66.6114 310.286 64.6519 306.383 63.3923C302.62 62.1326 298.368 61.5028 293.629 61.5028C290.562 61.5028 287.566 61.7827 284.638 62.3425C281.711 62.9024 279.063 63.8122 276.693 65.0718C274.463 66.1915 272.651 67.7311 271.257 69.6906C270.002 71.6501 269.375 74.0295 269.375 76.8287C269.375 79.628 270.142 82.0773 271.675 84.1768C273.208 86.1363 275.439 87.8858 278.366 89.4254C281.432 90.825 284.987 92.1547 289.029 93.4144C293.211 94.814 297.602 95.9337 302.202 96.7735C306.801 97.6133 311.192 98.733 315.374 100.133C320.671 101.532 325.619 103.212 330.219 105.171C334.819 106.991 338.861 109.37 342.346 112.309C345.831 115.109 348.549 118.748 350.5 123.227C352.452 127.565 353.428 132.954 353.428 139.392C353.428 147.93 351.825 155.208 348.619 161.227C345.552 167.105 341.301 171.864 335.864 175.503C330.568 179.142 324.504 181.801 317.674 183.481C310.844 185.16 303.805 186 296.556 186Z" stroke="#00DCC2" stroke-opacity="0.12" stroke-width="2" mask="url(#path-1-outside-1_4081_281)"/>
<path d="M411.168 185.79C398.762 185.79 389.562 182.291 383.569 175.293C377.714 168.295 374.787 158.707 374.787 146.53V99.9227H358.269V73.6796H374.787V43.8674H404.059V73.6796H437.513V99.9227H404.059V140.442C404.059 144.081 404.477 147.23 405.314 149.889C406.289 152.549 407.823 154.648 409.913 156.188C412.144 157.587 415.141 158.287 418.904 158.287C422.25 158.287 425.037 157.797 427.268 156.818C429.637 155.698 431.589 154.508 433.122 153.249L442.322 175.923C439.395 178.302 436.119 180.262 432.495 181.801C429.01 183.201 425.456 184.18 421.831 184.74C418.207 185.44 414.653 185.79 411.168 185.79Z" stroke="#00DCC2" stroke-opacity="0.12" stroke-width="2" mask="url(#path-1-outside-1_4081_281)"/>
<path d="M480.977 185.79C475.959 185.79 471.08 185.16 466.341 183.901C461.741 182.501 457.629 180.401 454.005 177.602C450.38 174.803 447.523 171.304 445.432 167.105C443.341 162.906 442.296 158.007 442.296 152.409C442.296 144.851 443.829 138.832 446.896 134.354C449.962 129.735 454.074 126.236 459.232 123.856C464.389 121.477 470.313 119.867 477.004 119.028C483.834 118.188 490.873 117.768 498.122 117.768H514.012C514.012 113.709 513.246 110.14 511.712 107.061C510.318 103.842 508.158 101.392 505.231 99.7127C502.303 97.8932 498.54 96.9834 493.94 96.9834C491.013 96.9834 488.155 97.4033 485.367 98.2431C482.719 98.9429 480.489 99.9926 478.677 101.392C476.865 102.792 475.68 104.611 475.122 106.851H445.432C446.268 100.692 448.22 95.4438 451.286 91.105C454.353 86.6261 458.186 82.9871 462.786 80.1878C467.386 77.3886 472.404 75.3591 477.84 74.0994C483.416 72.6998 489.131 72 494.985 72C511.015 72 522.864 76.6188 530.53 85.8564C538.197 94.954 542.03 107.901 542.03 124.696V184.32H515.685L515.267 170.044C511.782 174.943 507.809 178.512 503.349 180.751C499.028 182.991 494.846 184.39 490.804 184.95C486.761 185.51 483.486 185.79 480.977 185.79ZM487.667 162.486C492.546 162.486 497.007 161.506 501.049 159.547C505.091 157.587 508.297 154.928 510.667 151.569C513.036 148.21 514.221 144.431 514.221 140.232V137.503H494.149C491.222 137.503 488.364 137.643 485.577 137.923C482.928 138.203 480.489 138.762 478.259 139.602C476.168 140.302 474.495 141.492 473.24 143.171C471.986 144.851 471.359 147.09 471.359 149.889C471.359 152.689 472.056 155.068 473.45 157.028C474.983 158.847 477.004 160.247 479.513 161.227C482.022 162.066 484.74 162.486 487.667 162.486Z" stroke="#00DCC2" stroke-opacity="0.12" stroke-width="2" mask="url(#path-1-outside-1_4081_281)"/>
<path d="M605.876 185.79C594.586 185.79 584.898 183.481 576.813 178.862C568.868 174.243 562.804 167.735 558.623 159.337C554.441 150.799 552.35 140.792 552.35 129.315C552.35 117.698 554.511 107.621 558.832 99.0829C563.153 90.4052 569.356 83.6869 577.44 78.9282C585.664 74.1694 595.561 71.7901 607.131 71.7901C616.052 71.7901 623.997 73.3996 630.966 76.6188C637.936 79.8379 643.512 84.4567 647.693 90.4751C652.014 96.4936 654.524 103.912 655.22 112.729H626.576C625.321 107.831 622.882 104.262 619.258 102.022C615.773 99.7827 611.591 98.663 606.713 98.663C600.44 98.663 595.422 100.203 591.658 103.282C588.034 106.361 585.386 110.28 583.713 115.039C582.18 119.797 581.413 124.556 581.413 129.315C581.413 134.494 582.249 139.392 583.922 144.011C585.595 148.49 588.243 152.199 591.867 155.138C595.631 157.937 600.51 159.337 606.503 159.337C611.521 159.337 615.912 158.217 619.676 155.978C623.439 153.599 625.879 149.959 626.994 145.061H656.266C655.569 154.158 652.851 161.716 648.112 167.735C643.372 173.753 637.309 178.302 629.921 181.381C622.673 184.32 614.658 185.79 605.876 185.79Z" stroke="#00DCC2" stroke-opacity="0.12" stroke-width="2" mask="url(#path-1-outside-1_4081_281)"/>
<path d="M665.575 184.32V35.6796H694.847V116.088H709.274L736.246 73.6796H769.073L733.946 126.376L772 184.32H738.128L710.529 142.331H694.847V184.32H665.575Z" stroke="#00DCC2" stroke-opacity="0.12" stroke-width="2" mask="url(#path-1-outside-1_4081_281)"/>
</svg>
