<svg width="407" height="88" viewBox="0 0 407 88" fill="none" xmlns="http://www.w3.org/2000/svg">
<path d="M0 13.8947C0 6.22089 6.22089 0 13.8947 0H74.1053C81.7791 0 88 6.22089 88 13.8947V74.1053C88 81.7791 81.7791 88 74.1053 88H13.8947C6.22089 88 0 81.7791 0 74.1053V13.8947Z" fill="#042B31"/>
<path d="M66.1484 30.8C67.3736 30.8 68.407 30.1804 68.559 29.3547L70.3809 19.4547C70.5622 18.4699 69.4316 17.6 67.9704 17.6H20.0297C18.5685 17.6 17.4379 18.4699 17.6192 19.4547L19.4411 29.3547C19.5931 30.1804 20.6265 30.8 21.8517 30.8H66.1484Z" fill="#00DCC2"/>
<path d="M53.2913 37.3998C54.4171 37.3999 55.3665 38.0195 55.5065 38.8449L57.1811 48.7458C57.3473 49.7304 56.3087 50.6001 54.9659 50.6002H21.508C20.3821 50.6002 19.4316 49.9806 19.2917 49.1551V38.8449C19.4317 38.0194 20.381 37.3998 21.5069 37.3998H53.2913Z" fill="#00DCC2"/>
<path d="M66.1484 57.2C67.3736 57.2 68.407 57.8197 68.559 58.6454L70.3809 68.5454C70.5622 69.5302 69.4316 70.4 67.9704 70.4H20.0297C18.5685 70.4 17.4379 69.5302 17.6192 68.5454L19.4411 58.6454C19.5931 57.8197 20.6265 57.2 21.8517 57.2H66.1484Z" fill="#00DCC2"/>
<path d="M112 72.32V15.68H152.8V26.32H123.44V39.12H148.64V49.36H123.44V61.76H152.8V72.32H112Z" fill="#042B31"/>
<path d="M156.888 72.32V30.16H167.368L167.927 35.04C169.101 33.6 170.434 32.48 171.928 31.68C173.474 30.8266 175.021 30.24 176.568 29.92C178.168 29.6 179.607 29.44 180.887 29.44C184.941 29.44 188.087 30.32 190.327 32.08C192.621 33.84 194.248 36.2133 195.208 39.2C196.221 42.1333 196.728 45.4133 196.728 49.04V72.32H185.528V50.48C185.528 49.2 185.421 47.92 185.207 46.64C184.994 45.36 184.594 44.1866 184.007 43.12C183.474 42.0533 182.701 41.2 181.688 40.56C180.674 39.92 179.341 39.6 177.688 39.6C175.554 39.6 173.767 40.1333 172.327 41.2C170.887 42.2666 169.821 43.7066 169.127 45.52C168.434 47.3333 168.088 49.3333 168.088 51.52V72.32H156.888Z" fill="#042B31"/>
<path d="M225.085 72.96C221.138 72.96 217.458 72.3466 214.045 71.12C210.685 69.8933 207.858 67.9466 205.565 65.28C203.325 62.6133 201.912 59.1733 201.325 54.96H213.005C213.485 56.7733 214.365 58.24 215.645 59.36C216.925 60.4266 218.445 61.2 220.205 61.68C222.018 62.16 223.912 62.4 225.885 62.4C227.378 62.4 228.845 62.2133 230.285 61.84C231.725 61.4666 232.898 60.8266 233.805 59.92C234.765 59.0133 235.245 57.7866 235.245 56.24C235.245 55.0666 234.978 54.1066 234.445 53.36C233.965 52.6133 233.245 52.0266 232.285 51.6C231.378 51.12 230.258 50.6933 228.925 50.32C227.805 50 226.632 49.7333 225.405 49.52C224.232 49.3066 223.058 49.04 221.885 48.72C220.765 48.4 219.672 48.0266 218.605 47.6C216.578 47.0666 214.632 46.4266 212.765 45.68C210.898 44.88 209.245 43.8933 207.805 42.72C206.365 41.4933 205.218 39.9733 204.365 38.16C203.565 36.3466 203.165 34.16 203.165 31.6C203.165 28.8266 203.618 26.48 204.525 24.56C205.485 22.64 206.738 21.0666 208.285 19.84C209.885 18.56 211.645 17.5733 213.565 16.88C215.538 16.1866 217.512 15.7066 219.485 15.44C221.458 15.1733 223.325 15.04 225.085 15.04C228.765 15.04 232.072 15.68 235.005 16.96C237.938 18.24 240.338 20.16 242.205 22.72C244.072 25.28 245.138 28.5066 245.405 32.4H234.285C234.072 30.8 233.485 29.4933 232.525 28.48C231.565 27.4666 230.338 26.72 228.845 26.24C227.405 25.76 225.778 25.52 223.965 25.52C222.792 25.52 221.645 25.6266 220.525 25.84C219.405 26.0533 218.392 26.4 217.485 26.88C216.632 27.3066 215.938 27.8933 215.405 28.64C214.925 29.3866 214.685 30.2933 214.685 31.36C214.685 32.4266 214.978 33.36 215.565 34.16C216.152 34.9066 217.005 35.5733 218.125 36.16C219.298 36.6933 220.658 37.2 222.205 37.68C223.805 38.2133 225.485 38.64 227.245 38.96C229.005 39.28 230.685 39.7066 232.285 40.24C234.312 40.7733 236.205 41.4133 237.965 42.16C239.725 42.8533 241.272 43.76 242.605 44.88C243.938 45.9466 244.978 47.3333 245.725 49.04C246.472 50.6933 246.845 52.7466 246.845 55.2C246.845 58.4533 246.232 61.2266 245.005 63.52C243.832 65.76 242.205 67.5733 240.125 68.96C238.098 70.3466 235.778 71.36 233.165 72C230.552 72.64 227.858 72.96 225.085 72.96Z" fill="#042B31"/>
<path d="M268.938 72.88C264.191 72.88 260.671 71.5466 258.377 68.88C256.137 66.2133 255.017 62.56 255.017 57.92V40.16H248.697V30.16H255.017V18.8H266.217V30.16H279.018V40.16H266.217V55.6C266.217 56.9866 266.377 58.1866 266.697 59.2C267.071 60.2133 267.657 61.0133 268.457 61.6C269.311 62.1333 270.457 62.4 271.897 62.4C273.177 62.4 274.244 62.2133 275.097 61.84C276.004 61.4133 276.751 60.96 277.337 60.48L280.857 69.12C279.737 70.0266 278.484 70.7733 277.097 71.36C275.764 71.8933 274.404 72.2666 273.018 72.48C271.631 72.7466 270.271 72.88 268.938 72.88Z" fill="#042B31"/>
<path d="M295.647 72.88C293.727 72.88 291.861 72.64 290.048 72.16C288.288 71.6266 286.714 70.8266 285.327 69.76C283.941 68.6933 282.848 67.36 282.048 65.76C281.248 64.16 280.848 62.2933 280.848 60.16C280.848 57.28 281.434 54.9866 282.607 53.28C283.781 51.52 285.354 50.1866 287.327 49.28C289.301 48.3733 291.568 47.76 294.128 47.44C296.741 47.12 299.434 46.96 302.208 46.96H308.288C308.288 45.4133 307.994 44.0533 307.408 42.88C306.874 41.6533 306.048 40.72 304.928 40.08C303.808 39.3866 302.367 39.04 300.607 39.04C299.487 39.04 298.394 39.2 297.327 39.52C296.314 39.7866 295.461 40.1866 294.768 40.72C294.074 41.2533 293.621 41.9466 293.408 42.8H282.048C282.368 40.4533 283.114 38.4533 284.287 36.8C285.461 35.0933 286.928 33.7066 288.688 32.64C290.448 31.5733 292.367 30.8 294.447 30.32C296.581 29.7866 298.767 29.52 301.007 29.52C307.141 29.52 311.674 31.28 314.607 34.8C317.541 38.2666 319.007 43.2 319.007 49.6V72.32H308.927L308.768 66.88C307.434 68.7466 305.914 70.1066 304.208 70.96C302.554 71.8133 300.954 72.3466 299.408 72.56C297.861 72.7733 296.607 72.88 295.647 72.88ZM298.208 64C300.074 64 301.781 63.6266 303.327 62.88C304.874 62.1333 306.101 61.12 307.007 59.84C307.914 58.56 308.367 57.12 308.367 55.52V54.48H300.688C299.567 54.48 298.474 54.5333 297.408 54.64C296.394 54.7466 295.461 54.96 294.607 55.28C293.807 55.5466 293.168 56 292.688 56.64C292.208 57.28 291.967 58.1333 291.967 59.2C291.967 60.2666 292.234 61.1733 292.768 61.92C293.354 62.6133 294.127 63.1466 295.087 63.52C296.047 63.84 297.088 64 298.208 64Z" fill="#042B31"/>
<path d="M343.436 72.88C339.116 72.88 335.41 72 332.316 70.24C329.276 68.48 326.956 66 325.356 62.8C323.756 59.5466 322.956 55.7333 322.956 51.36C322.956 46.9333 323.783 43.0933 325.436 39.84C327.09 36.5333 329.463 33.9733 332.556 32.16C335.703 30.3466 339.49 29.44 343.916 29.44C347.33 29.44 350.37 30.0533 353.036 31.28C355.703 32.5066 357.836 34.2666 359.436 36.56C361.09 38.8533 362.05 41.68 362.316 45.04H351.356C350.876 43.1733 349.943 41.8133 348.556 40.96C347.223 40.1066 345.623 39.68 343.756 39.68C341.356 39.68 339.436 40.2666 337.996 41.44C336.61 42.6133 335.596 44.1066 334.956 45.92C334.37 47.7333 334.076 49.5466 334.076 51.36C334.076 53.3333 334.396 55.2 335.036 56.96C335.676 58.6666 336.69 60.08 338.076 61.2C339.516 62.2666 341.383 62.8 343.676 62.8C345.596 62.8 347.276 62.3733 348.716 61.52C350.156 60.6133 351.09 59.2266 351.516 57.36H362.716C362.45 60.8266 361.41 63.7066 359.596 66C357.783 68.2933 355.463 70.0266 352.636 71.2C349.863 72.32 346.796 72.88 343.436 72.88Z" fill="#042B31"/>
<path d="M366.278 72.32V15.68H377.478V46.32H382.998L393.318 30.16H405.878L392.438 50.24L406.998 72.32H394.038L383.478 56.32H377.478V72.32H366.278Z" fill="#042B31"/>
</svg>
