<svg width="96" height="96" viewBox="0 0 96 96" fill="none" xmlns="http://www.w3.org/2000/svg">
<path d="M0 15.1579C0 6.78642 6.78642 0 15.1579 0H80.8421C89.2136 0 96 6.78642 96 15.1579V80.8421C96 89.2136 89.2136 96 80.8421 96H15.1579C6.78642 96 0 89.2136 0 80.8421V15.1579Z" fill="#042B31"/>
<path d="M72.1619 33.6C73.4985 33.6 74.6258 32.9241 74.7916 32.0233L76.7792 21.2233C76.9769 20.149 75.7436 19.2 74.1495 19.2H21.8506C20.2565 19.2 19.0232 20.149 19.2209 21.2233L21.2085 32.0233C21.3743 32.9241 22.5017 33.6 23.8382 33.6H72.1619Z" fill="#00DCC2"/>
<path d="M58.136 40.7998C59.3641 40.7999 60.3998 41.4758 60.5525 42.3762L62.3794 53.1772C62.5607 54.2513 61.4277 55.2001 59.9629 55.2002H23.4633C22.235 55.2002 21.1981 54.5243 21.0455 53.6238V42.3762C21.1982 41.4757 22.2338 40.7998 23.462 40.7998H58.136Z" fill="#00DCC2"/>
<path d="M72.1619 62.4C73.4985 62.4 74.6258 63.076 74.7916 63.9768L76.7792 74.7768C76.9769 75.8511 75.7436 76.8 74.1495 76.8H21.8506C20.2565 76.8 19.0232 75.8511 19.2209 74.7768L21.2085 63.9768C21.3743 63.076 22.5017 62.4 23.8382 62.4H72.1619Z" fill="#00DCC2"/>
</svg>
